HIERARCHY
ROOT Hips
{
	OFFSET 0.000000 0.000000 0.000000 
	CHANNELS 6 Xposition Yposition Zposition Yrotation Zrotation Xrotation 
	JOINT Lumbar
	{
		OFFSET 0.000000 0.000000 0.000000 
		CHANNELS 3 Zrotation Xrotation Yrotation
		JOINT Neck
		{
			OFFSET 0.000000 0.445665 0.000000 
			CHANNELS 3 Zrotation Xrotation Yrotation
			End Site
			{
				OFFSET 0.000000 0.227535 0.000000 
			}
		}
		JOINT RightShoulder
		{
			OFFSET 0.019635 0.377685 0.194865 
			CHANNELS 3 Zrotation Xrotation Yrotation
			JOINT RightElbow
			{
				OFFSET 0.000000 -0.243375 0.000000 
				CHANNELS 2 Zrotation Yrotation
				JOINT RightWrist
				{
					OFFSET 0.000000 -0.264825 0.000000 
					CHANNELS 2 Zrotation Xrotation
					End Site
					{
						OFFSET 0.006600 -0.176220 0.000990 
					}
				}
			}
		}
		JOINT LeftShoulder
		{
			OFFSET 0.019635 0.377685 -0.194865 
			CHANNELS 3 Zrotation Xrotation Yrotation
			JOINT LeftElbow
			{
				OFFSET 0.000000 -0.243375 0.000000 
				CHANNELS 2 Zrotation Yrotation
				JOINT LeftWrist
				{
					OFFSET 0.000000 -0.264825 0.000000 
					CHANNELS 2 Zrotation Xrotation
					End Site
					{
						OFFSET 0.006600 -0.176220 -0.000990 
					}
				}
			}
		}
	}
	JOINT RightHip
	{
		OFFSET 0.052140 -0.069960 0.075570 
		CHANNELS 3 Zrotation Xrotation Yrotation
		JOINT RightKnee
		{
			OFFSET 0.000000 -0.402270 0.000000 
			CHANNELS 1 Zrotation
			JOINT RightAnkle
			{
				OFFSET 0.000000 -0.404085 0.000000 
				CHANNELS 3 Zrotation Xrotation Yrotation
				End Site
				{
					OFFSET 0.204105 -0.089430 0.008415 
				}
			}
		}
	}
	JOINT LeftHip
	{
		OFFSET 0.052140 -0.069960 -0.075570 
		CHANNELS 3 Zrotation Xrotation Yrotation
		JOINT LeftKnee
		{
			OFFSET 0.000000 -0.402270 0.000000 
			CHANNELS 1 Zrotation
			JOINT LeftAnkle
			{
				OFFSET 0.000000 -0.404085 0.000000 
				CHANNELS 3 Zrotation Xrotation Yrotation
				End Site
				{
					OFFSET 0.204105 -0.089430 -0.008415 
				}
			}
		}
	}
}
MOTION
Frames: 33
Frame Time: 0.02
0.02612 -0.03112 0.22471 10.90207 -19.72375 -9.11516 39.60714 0.79821 5.58392 -37.64842 2.0508 -0.83076 -29.61175 -11.65918 -11.14008 28.78565 82.23941 -0.36143 -8.03298 -21.9052 122.75538 -26.78538 5.98528 -49.58271 -13.46172 -0.1511 36.16125 13.92287 -40.62271 -25.04603 15.76641 18.27491 5.77125 51.56064 0.73086 17.22866 -35.58095 -9.17684 5.42059 3.68482
0.02534 -0.03102 0.22458 10.72499 -19.75225 -9.19788 39.70182 0.85345 5.44293 -37.98609 2.20163 -0.83076 -29.98321 -11.12451 -11.8404 29.11013 82.11351 -0.87179 -8.89801 -20.76967 122.719 -28.03325 6.12665 -50.83726 -14.17293 -0.28688 36.32371 13.92287 -40.6227 -25.21056 15.40626 18.21853 6.04666 51.62041 0.70635 16.92134 -35.40039 -9.24051 5.44539 3.70377
0.02474 -0.03079 0.22467 10.49594 -19.83657 -9.31388 39.85203 0.88159 5.35171 -38.30691 2.5329 -0.83076 -29.99818 -10.60723 -12.70839 29.10641 82.06079 -1.32882 -9.52928 -19.61851 122.80408 -29.4238 6.27753 -53.55513 -14.68204 -0.7067 36.58234 13.92287 -40.6227 -25.47468 14.91867 18.05914 6.46612 51.72501 0.66752 16.42914 -35.15224 -9.32586 5.48281 3.73162
0.02404 -0.03064 0.22464 10.29425 -19.89261 -9.4117 39.97055 0.92469 5.24269 -38.62876 2.7805 -0.83076 -30.17119 -10.10664 -13.44884 29.25688 81.97414 -1.79392 -10.24539 -18.50188 122.82623 -30.70959 6.41827 -55.50493 -15.26907 -0.98502 36.79011 13.92287 -40.62269 -25.68413 14.50152 17.95588 6.80909 51.80671 0.63547 16.03405 -34.93948 -9.39944 5.51365 3.75478
0.02341 -0.03043 0.22468 10.07533 -19.96235 -9.52349 40.11721 0.95542 5.11375 -38.97985 3.04374 -0.83076 -30.36278 -9.50285 -14.41081 29.39491 81.88766 -2.33823 -11.071 -17.25333 122.88323 -32.13857 6.58917 -57.87484 -15.93089 -1.30584 37.03158 13.92287 -40.62268 -25.93764 14.02726 17.821 7.19649 51.9014 0.60437 15.58484 -34.70831 -9.4811 5.54805 3.78062
0.02269 -0.03029 0.22462 9.88104 -20.01638 -9.61393 40.21832 1.00619 5.03734 -39.26528 3.31447 -0.83076 -30.42944 -9.11825 -14.95103 29.47828 81.81908 -2.70237 -11.60814 -16.28236 122.89586 -33.31253 6.69816 -59.72553 -16.38429 -1.60894 37.22454 13.92287 -40.62268 -26.12141 13.6433 17.72388 7.52622 51.97867 0.56715 15.20448 -34.49887 -9.5509 5.57796 3.80295
0.02166 -0.03037 0.22424 9.7609 -20.01232 -9.63413 40.1777 1.1159 5.1014 -39.37667 3.55561 -0.83076 -30.24833 -9.33054 -14.26528 29.48138 81.78415 -2.56112 -11.37495 -16.07765 122.75398 -33.75093 6.62397 -59.75353 -16.29272 -1.79914 37.25768 13.92287 -40.62268 -26.08747 13.54032 17.76348 7.66385 51.99838 0.51551 15.0532 -34.36671 -9.58497 5.59326 3.81402
0.02054 -0.03053 0.22374 9.66856 -19.99059 -9.63208 40.08975 1.2474 5.21526 -39.42175 3.798 -0.83076 -29.95157 -9.76335 -13.15248 29.44124 81.76479 -2.24255 -10.86223 -16.15562 122.56353 -33.93004 6.48807 -59.21637 -15.99935 -1.96204 37.23861 13.92287 -40.62269 -25.97936 13.53338 17.84158 7.73871 51.99851 0.45801 14.97829 -34.25844 -9.60599 5.60347 3.82114
0.01946 -0.03064 0.22327 9.56804 -19.97734 -9.6421 40.02466 1.37108 5.30132 -39.49505 4.04242 -0.83076 -29.70139 -10.09788 -12.2472 29.42572 81.73722 -2.01698 -10.4946 -16.10936 122.39625 -34.23016 6.38594 -58.95951 -15.8083 -2.13548 37.24441 13.92287 -40.6227 -25.90512 13.4825 17.89718 7.8406 52.0062 0.40363 14.87253 -34.1386 -9.63143 5.61542 3.82963
0.01837 -0.03077 0.22289 9.44736 -19.96383 -9.64505 39.95522 1.48511 5.41077 -39.57615 4.28196 -0.83076 -29.465 -10.42525 -11.28981 29.37772 81.71668 -1.73707 -10.04277 -16.04525 122.22791 -34.52444 6.26002 -58.65293 -15.56589 -2.32701 37.24874 13.92287 -40.6227 -25.83396 13.42736 17.97329 7.95228 52.02076 0.34712 14.74495 -34.01949 -9.66384 5.63012 3.84017
0.01729 -0.03089 0.2223 9.37537 -19.94634 -9.65698 39.88365 1.62465 5.48289 -39.62511 4.53004 -0.83076 -29.17582 -10.81919 -10.33899 29.39162 81.68459 -1.52925 -9.70317 -16.0846 122.04955 -34.76374 6.16895 -58.29858 -15.38489 -2.47008 37.24256 13.92287 -40.62271 -25.73721 13.40679 18.01357 8.02868 52.01625 0.2935 14.68223 -33.90536 -9.67858 5.63783 3.84546
0.01627 -0.03096 0.22122 9.43626 -19.91831 -9.69917 39.8107 1.83057 5.43779 -39.60449 4.79619 -0.83076 -28.78157 -11.34714 -9.49497 29.58614 81.61384 -1.56021 -9.73955 -16.35095 121.84689 -34.94873 6.18795 -57.92712 -15.42464 -2.49104 37.21831 13.92287 -40.62271 -25.58932 13.44821 17.97893 8.0052 51.95923 0.25235 14.79116 -33.79991 -9.64554 5.62642 3.83645
0.01526 -0.03101 0.21994 9.54439 -19.88719 -9.75092 39.73821 2.0613 5.35363 -39.5533 5.0709 -0.83076 -28.33777 -11.93351 -8.67404 29.84633 81.53119 -1.67064 -9.89988 -16.70984 121.6368 -35.08137 6.24423 -57.52389 -15.53361 -2.46212 37.18493 13.92287 -40.62271 -25.41742 13.52326 17.90312 7.95027 51.88421 0.21394 14.96203 -33.69893 -9.59544 5.60825 3.82235
0.01425 -0.03107 0.21874 9.62784 -19.85988 -9.79817 39.66998 2.28003 5.28827 -39.51435 5.3442 -0.83076 -27.91017 -12.49048 -7.85249 30.07853 81.45552 -1.74746 -10.0063 -17.01955 121.43504 -35.21371 6.28428 -57.14355 -15.61087 -2.45101 37.15667 13.92287 -40.62271 -25.25519 13.59053 17.82223 7.92162 51.82039 0.17217 15.09751 -33.59563 -9.55453 5.59385 3.81104
0.01322 -0.03113 0.21757 9.72617 -19.82237 -9.84554 39.58156 2.5027 5.21985 -39.48028 5.60726 -0.83076 -27.50454 -13.06764 -6.97591 30.30078 81.37357 -1.80794 -10.09335 -17.36906 121.21068 -35.43455 6.31953 -56.70974 -15.6827 -2.45851 37.12335 13.92287 -40.62271 -25.09593 13.63085 17.835 7.84324 51.74365 0.13857 15.26415 -33.49398 -9.50727 5.57644 3.79766
0.01224 -0.03118 0.21629 9.80389 -19.80494 -9.89494 39.53553 2.72264 5.14838 -39.42939 5.89353 -0.83076 -27.04349 -13.61319 -6.22316 30.56044 81.30197 -1.92306 -10.25293 -17.65413 121.03232 -35.46729 6.374 -56.38567 -15.78409 -2.41712 37.09808 13.92287 -40.62271 -24.92543 13.73223 17.6525 7.85806 51.68917 0.08939 15.38208 -33.39012 -9.46914 5.56362 3.78735
0.01134 -0.03122 0.21476 9.81741 -19.84933 -9.95024 39.61007 2.92991 5.07311 -39.34197 6.24237 -0.83076 -26.43813 -14.06041 -5.82462 30.90398 81.25902 -2.17528 -10.59168 -17.7359 120.98269 -34.94867 6.47656 -56.38403 -15.95858 -2.24065 37.10589 13.92287 -40.6227 -24.73297 14.00943 16.85255 8.17065 51.70618 -0.00959 15.32884 -33.27513 -9.46241 5.5663 3.78748
0.01048 -0.03125 0.21314 9.80773 -19.91311 -10.00694 39.72689 3.13316 4.99659 -39.23848 6.61401 -0.83076 -25.78021 -14.47174 -5.5489 31.28379 81.22729 -2.47939 -10.99871 -17.74866 120.98005 -34.25201 6.5967 -56.49449 -16.15975 -2.01904 37.12089 13.92287 -40.62269 -24.53008 14.34359 15.8725 8.57281 51.74531 -0.12318 15.22775 -33.15844 -9.46517 5.57365 3.79076
0.0096 -0.03128 0.21156 9.80567 -19.96438 -10.06129 39.82211 3.33773 4.92387 -39.14122 6.97494 -0.83076 -25.14891 -14.8967 -5.20708 31.64945 81.19225 -2.75715 -11.37002 -17.79342 120.95602 -33.66774 6.70645 -56.54862 -16.3444 -1.82628 37.12696 13.92287 -40.62269 -24.32987 14.64108 15.03431 8.91219 51.77064 -0.22604 15.16274 -33.0449 -9.46226 5.57809 3.79212
0.00871 -0.03131 0.20998 9.81728 -20.03104 -10.12287 39.92707 3.54593 4.83698 -39.04777 7.33814 -0.83076 -24.50326 -15.33658 -4.90839 32.00748 81.14943 -3.05002 -11.76582 -17.83908 120.93115 -32.94934 6.82775 -56.6238 -16.55045 -1.59673 37.15595 13.92287 -40.62268 -24.13627 14.98532 13.94671 9.34162 51.8109 -0.34606 15.04083 -32.92121 -9.46434 5.58555 3.79536
0.00787 -0.03135 0.20837 9.79469 -20.07044 -10.16999 40.02221 3.74451 4.77881 -38.94251 7.70127 -0.83076 -23.87692 -15.73429 -4.54983 32.38921 81.12542 -3.32179 -12.12456 -17.86503 120.92013 -32.46777 6.92851 -56.68255 -16.71666 -1.43357 37.13985 13.92287 -40.62267 -23.92825 15.24528 13.3296 9.60773 51.82587 -0.43386 15.02351 -32.81857 -9.4587 5.58799 3.79553
0.00718 -0.0314 0.20665 9.67963 -20.02832 -10.17331 40.07629 3.92407 4.80894 -38.81286 8.06365 -0.83076 -23.30744 -16.03853 -3.98803 32.82704 81.15244 -3.53065 -12.36989 -17.8544 120.9287 -32.69088 6.96985 -56.6672 -16.77296 -1.46597 36.9904 13.92287 -40.62267 -23.67014 15.25805 14.11465 9.37906 51.76284 -0.42901 15.3212 -32.77124 -9.42788 5.5748 3.78603
0.00657 -0.03146 0.20489 9.53146 -19.95836 -10.16257 40.11963 4.09268 4.86666 -38.67126 8.42396 -0.83076 -22.76174 -16.2984 -3.36355 33.28723 81.19774 -3.71464 -12.57394 -17.8257 120.9508 -33.15598 6.98949 -56.63214 -16.78688 -1.56639 36.7966 13.92287 -40.62267 -23.40033 15.18402 15.36884 8.98705 51.67417 -0.39133 15.72266 -32.74576 -9.38936 5.55654 3.77343
0.00593 -0.03151 0.20317 9.40058 -19.90222 -10.16057 40.17039 4.26198 4.90614 -38.53248 8.78217 -0.83076 -22.21089 -16.56921 -2.77236 33.73719 81.23349 -3.90434 -12.79263 -17.80403 120.97167 -33.50776 7.01778 -56.60695 -16.81529 -1.63561 36.6279 13.92287 -40.62267 -23.14445 15.14979 16.36955 8.68453 51.59919 -0.36872 16.06698 -32.71229 -9.35542 5.54102 3.76253
0.00523 -0.03158 0.20137 9.25925 -19.842 -10.1489 40.21229 4.44951 4.96932 -38.40411 9.15497 -0.83076 -21.63219 -16.87859 -2.16354 34.1888 81.27478 -4.11942 -13.03117 -17.78472 120.97412 -33.87342 7.0516 -56.58091 -16.864 -1.70599 36.43893 13.92287 -40.62267 -22.85207 15.11578 17.5331 8.32132 51.51649 -0.34578 16.45234 -32.6704 -9.31715 5.52377 3.75047
0.00469 -0.03162 0.19973 9.13239 -19.78317 -10.15377 40.26906 4.5962 4.9901 -38.25145 9.49537 -0.83076 -21.1205 -17.09648 -1.57701 34.64173 81.30883 -4.27518 -13.21764 -17.75747 121.01661 -34.26244 7.06878 -56.5516 -16.86105 -1.78877 36.2811 13.92287 -40.62267 -22.63278 15.06034 18.47233 8.04378 51.44332 -0.31579 16.7768 -32.65149 -9.28604 5.50891 3.74008
0.00458 -0.03163 0.19856 9.05134 -19.73697 -10.20984 40.37354 4.63543 4.88373 -38.03465 9.75678 -0.83076 -20.76573 -17.08197 -1.04941 35.09227 81.31755 -4.27139 -13.26975 -17.70988 121.17404 -34.72364 7.04277 -56.50801 -16.71651 -1.90648 36.22409 13.92287 -40.62267 -22.62079 14.96343 18.66885 8.04927 51.40412 -0.27221 16.91374 -32.68853 -9.27571 5.50147 3.73474
0.00464 -0.03162 0.19756 8.98658 -19.6927 -10.28266 40.4924 4.6335 4.73442 -37.79398 9.98351 -0.83076 -20.48215 -16.97544 -0.54926 35.54269 81.31843 -4.20869 -13.27047 -17.6559 121.36952 -35.18935 7.00109 -56.463 -16.52299 -2.03157 36.1992 13.92287 -40.62267 -22.68234 14.84837 18.62581 8.14499 51.37504 -0.22298 16.98501 -32.74831 -9.27295 5.49667 3.73124
0.00463 -0.03161 0.19649 8.91593 -19.6461 -10.34643 40.60179 4.64863 4.60693 -37.56423 10.21965 -0.83076 -20.18073 -16.90496 -0.04756 35.99411 81.32343 -4.17405 -13.29502 -17.60696 121.54239 -35.60887 6.96822 -56.42481 -16.35792 -2.14188 36.15689 13.92287 -40.62267 -22.70857 14.7436 18.69908 8.19461 51.34027 -0.17774 17.08246 -32.79911 -9.26726 5.49092 3.72711
0.0046 -0.03161 0.19538 8.83758 -19.60451 -10.41577 40.72317 4.67014 4.47053 -37.33345 10.48318 -0.83076 -19.81833 -16.8569 0.50286 36.44481 81.32684 -4.13371 -13.3169 -17.54798 121.73861 -36.21927 6.92769 -56.36043 -16.16549 -2.30185 36.12477 13.92287 -40.62267 -22.74236 14.62703 18.75767 8.25991 51.30916 -0.12547 17.19854 -32.84506 -9.25917 5.48396 3.72198
0.00464 -0.03161 0.19441 8.77973 -19.55351 -10.4777 40.82321 4.66895 4.3423 -37.09968 10.68063 -0.83076 -19.60017 -16.74131 0.94388 36.89356 81.33133 -4.09088 -13.33176 -17.5091 121.89454 -36.4348 6.89941 -56.34992 -16.01864 -2.36043 36.07985 13.92287 -40.62267 -22.77809 14.53207 18.78327 8.31634 51.27326 -0.08681 17.25943 -32.90611 -9.25794 5.48017 3.7194
0.00478 -0.03161 0.1938 8.77348 -19.47443 -10.51489 40.86007 4.6134 4.24564 -36.86035 10.71125 -0.83076 -19.75753 -16.45823 1.09388 37.36236 81.34165 -4.06168 -13.3475 -17.52343 121.93437 -35.51798 6.91103 -56.49343 -16.01259 -2.127 35.99002 13.92287 -40.62267 -22.80053 14.49974 18.77955 8.32459 51.2209 -0.08834 17.17855 -33.00407 -9.27429 5.4847 3.72357
0.00497 -0.03162 0.19333 8.78768 -19.38629 -10.54417 40.87516 4.53682 4.15886 -36.61959 10.67537 -0.83076 -20.05834 -16.11137 1.13333 37.82361 81.35307 -4.03111 -13.35673 -17.55894 121.93151 -34.21077 6.93524 -56.69029 -16.05383 -1.79308 35.88675 13.92287 -40.62268 -22.82254 14.49051 18.74811 8.32178 51.16361 -0.10372 17.04489 -33.11607 -9.29722 5.4923 3.73022
